STARTFONT 2.1
COMMENT
COMMENT Converted from OpenType font "Pixel NES.otf" by "otf2bdf 3.0".
COMMENT
FONT -FreeType-Pixel NES-Medium-R-Normal--17-120-100-100-P-99-ISO10646-1
SIZE 12 100 100
FONTBOUNDINGBOX 13 22 0 -4
STARTPROPERTIES 19
FOUNDRY "FreeType"
FAMILY_NAME "Pixel NES"
WEIGHT_NAME "Medium"
SLANT "R"
SETWIDTH_NAME "Normal"
ADD_STYLE_NAME ""
PIXEL_SIZE 17
POINT_SIZE 120
RESOLUTION_X 100
RESOLUTION_Y 100
SPACING "P"
AVERAGE_WIDTH 99
CHARSET_REGISTRY "ISO10646"
CHARSET_ENCODING "1"
FONT_ASCENT 16
FONT_DESCENT 3
COPYRIGHT "Pixel NES © (Neale Davidson). 2011. All Rights Reserved"
_OTF_FONTFILE "Pixel NES.otf"
_OTF_PSNAME "PixelNES"
ENDPROPERTIES
CHARS 242
STARTCHAR 0000
ENCODING 0
SWIDTH 0 0
DWIDTH 0 0
BBX 0 0 0 0
BITMAP
ENDCHAR
STARTCHAR 001D
ENCODING 29
SWIDTH 0 0
DWIDTH 0 0
BBX 0 0 0 0
BITMAP
ENDCHAR
STARTCHAR 0020
ENCODING 32
SWIDTH 780 0
DWIDTH 13 0
BBX 0 0 0 0
BITMAP
ENDCHAR
STARTCHAR 0021
ENCODING 33
SWIDTH 720 0
DWIDTH 12 0
BBX 10 12 0 0
BITMAP
01C0
01C0
07C0
0700
0700
1E00
1E00
1800
0000
0000
C000
C000
ENDCHAR
STARTCHAR 0022
ENCODING 34
SWIDTH 420 0
DWIDTH 7 0
BBX 5 3 0 9
BITMAP
D8
D8
D8
ENDCHAR
STARTCHAR 0023
ENCODING 35
SWIDTH 600 0
DWIDTH 10 0
BBX 8 9 0 2
BITMAP
6C
6C
FF
FF
6C
FF
FF
6C
6C
ENDCHAR
STARTCHAR 0024
ENCODING 36
SWIDTH 780 0
DWIDTH 13 0
BBX 11 12 0 0
BITMAP
0600
0600
3FC0
FFC0
E600
3FC0
3FC0
06E0
3FC0
3FC0
0600
0600
ENDCHAR
STARTCHAR 0025
ENCODING 37
SWIDTH 780 0
DWIDTH 13 0
BBX 11 12 0 0
BITMAP
E0E0
E0E0
E1E0
07C0
07C0
1F00
1F00
3E00
3800
F8E0
E0E0
E0E0
ENDCHAR
STARTCHAR 0026
ENCODING 38
SWIDTH 780 0
DWIDTH 13 0
BBX 12 12 0 0
BITMAP
3E00
3E00
E100
E100
F900
3E30
3E30
E730
E1C0
E1C0
3FF0
3FF0
ENDCHAR
STARTCHAR 0027
ENCODING 39
SWIDTH 180 0
DWIDTH 3 0
BBX 2 3 0 9
BITMAP
C0
C0
C0
ENDCHAR
STARTCHAR 0028
ENCODING 40
SWIDTH 720 0
DWIDTH 12 0
BBX 10 12 0 0
BITMAP
3FC0
3FC0
E000
E000
E000
E000
E000
E000
E000
E000
3FC0
3FC0
ENDCHAR
STARTCHAR 0029
ENCODING 41
SWIDTH 720 0
DWIDTH 12 0
BBX 10 12 0 0
BITMAP
FF00
FF00
01C0
01C0
01C0
01C0
01C0
01C0
01C0
01C0
FF00
FF00
ENDCHAR
STARTCHAR 002A
ENCODING 42
SWIDTH 600 0
DWIDTH 10 0
BBX 8 9 0 2
BITMAP
C1
C1
26
26
FF
FF
26
C1
C1
ENDCHAR
STARTCHAR 002B
ENCODING 43
SWIDTH 600 0
DWIDTH 10 0
BBX 8 9 0 2
BITMAP
18
18
18
18
FF
FF
18
18
18
ENDCHAR
STARTCHAR 002C
ENCODING 44
SWIDTH 180 0
DWIDTH 3 0
BBX 2 3 0 -2
BITMAP
C0
C0
C0
ENDCHAR
STARTCHAR 002D
ENCODING 45
SWIDTH 600 0
DWIDTH 10 0
BBX 8 2 0 5
BITMAP
FF
FF
ENDCHAR
STARTCHAR 002E
ENCODING 46
SWIDTH 180 0
DWIDTH 3 0
BBX 2 2 0 0
BITMAP
C0
C0
ENDCHAR
STARTCHAR 002F
ENCODING 47
SWIDTH 780 0
DWIDTH 13 0
BBX 11 12 0 0
BITMAP
00E0
00E0
01E0
07C0
07C0
1F00
1F00
3E00
3800
F800
E000
E000
ENDCHAR
STARTCHAR 0030
ENCODING 48
SWIDTH 840 0
DWIDTH 14 0
BBX 12 12 0 0
BITMAP
0F80
0F80
31C0
F070
F070
F070
F070
F070
3840
3840
0F80
0F80
ENDCHAR
STARTCHAR 0031
ENCODING 49
SWIDTH 720 0
DWIDTH 12 0
BBX 10 12 0 0
BITMAP
1C00
1C00
7C00
7C00
1C00
1C00
1C00
1C00
1C00
1C00
FFC0
FFC0
ENDCHAR
STARTCHAR 0032
ENCODING 50
SWIDTH 780 0
DWIDTH 13 0
BBX 11 12 0 0
BITMAP
3FC0
3FC0
E0E0
E0E0
00E0
0FC0
0FC0
3E00
F800
F800
FFE0
FFE0
ENDCHAR
STARTCHAR 0033
ENCODING 51
SWIDTH 780 0
DWIDTH 13 0
BBX 11 12 0 0
BITMAP
3FE0
3FE0
01C0
0700
0700
1FC0
1FC0
00E0
E0E0
E0E0
3FC0
3FC0
ENDCHAR
STARTCHAR 0034
ENCODING 52
SWIDTH 780 0
DWIDTH 13 0
BBX 12 12 0 0
BITMAP
07C0
07C0
1FC0
39C0
39C0
E1C0
E1C0
FFF0
FFF0
01C0
01C0
01C0
ENDCHAR
STARTCHAR 0035
ENCODING 53
SWIDTH 780 0
DWIDTH 13 0
BBX 11 12 0 0
BITMAP
FFC0
FFC0
E000
FFC0
FFC0
00E0
00E0
00E0
E0E0
E0E0
3FC0
3FC0
ENDCHAR
STARTCHAR 0036
ENCODING 54
SWIDTH 780 0
DWIDTH 13 0
BBX 11 12 0 0
BITMAP
1FC0
1FC0
3800
E000
E000
FFC0
FFC0
E0E0
E0E0
E0E0
3FC0
3FC0
ENDCHAR
STARTCHAR 0037
ENCODING 55
SWIDTH 780 0
DWIDTH 13 0
BBX 11 12 0 0
BITMAP
FFE0
FFE0
C0E0
C0E0
01C0
07C0
0700
1C00
1C00
1C00
1C00
1C00
ENDCHAR
STARTCHAR 0038
ENCODING 56
SWIDTH 780 0
DWIDTH 13 0
BBX 11 12 0 0
BITMAP
7F00
7F00
E0C0
E0C0
F8C0
7F00
7F00
C7E0
C0E0
C0E0
7FC0
7FC0
ENDCHAR
STARTCHAR 0039
ENCODING 57
SWIDTH 780 0
DWIDTH 13 0
BBX 11 12 0 0
BITMAP
7FC0
7FC0
E0E0
E0E0
E0E0
7FE0
7FE0
00E0
00E0
01C0
7F00
7F00
ENDCHAR
STARTCHAR 003A
ENCODING 58
SWIDTH 180 0
DWIDTH 3 0
BBX 2 7 0 0
BITMAP
C0
C0
00
00
00
C0
C0
ENDCHAR
STARTCHAR 003B
ENCODING 59
SWIDTH 180 0
DWIDTH 3 0
BBX 2 9 0 -2
BITMAP
C0
C0
00
00
00
C0
C0
C0
C0
ENDCHAR
STARTCHAR 003C
ENCODING 60
SWIDTH 720 0
DWIDTH 12 0
BBX 10 9 0 2
BITMAP
07C0
07C0
1C00
1C00
F800
F800
1C00
07C0
07C0
ENDCHAR
STARTCHAR 003D
ENCODING 61
SWIDTH 600 0
DWIDTH 10 0
BBX 8 5 0 3
BITMAP
FF
FF
00
FF
FF
ENDCHAR
STARTCHAR 003E
ENCODING 62
SWIDTH 780 0
DWIDTH 13 0
BBX 10 9 1 2
BITMAP
F800
F800
1C00
1C00
07C0
07C0
1C00
F800
F800
ENDCHAR
STARTCHAR 003F
ENCODING 63
SWIDTH 780 0
DWIDTH 13 0
BBX 11 12 0 0
BITMAP
3FC0
3FC0
E0E0
E0E0
00E0
07C0
07C0
1E00
1E00
0000
1800
1800
ENDCHAR
STARTCHAR 0040
ENCODING 64
SWIDTH 780 0
DWIDTH 13 0
BBX 11 12 0 0
BITMAP
3FC0
FFE0
E0E0
E6E0
E6E0
E6E0
E6C0
E7C0
E7C0
E000
3FC0
3FC0
ENDCHAR
STARTCHAR 0041
ENCODING 65
SWIDTH 780 0
DWIDTH 13 0
BBX 11 12 0 0
BITMAP
1F00
1F00
39C0
E0E0
E0E0
E0E0
E0E0
FFE0
FFE0
E0E0
E0E0
E0E0
ENDCHAR
STARTCHAR 0042
ENCODING 66
SWIDTH 780 0
DWIDTH 13 0
BBX 11 12 0 0
BITMAP
FFC0
FFC0
E0E0
E0E0
E0E0
FFC0
FFC0
E0E0
E0E0
E0E0
FFC0
FFC0
ENDCHAR
STARTCHAR 0043
ENCODING 67
SWIDTH 780 0
DWIDTH 13 0
BBX 11 12 0 0
BITMAP
1FC0
1FC0
38E0
E000
E000
E000
E000
E000
38E0
38E0
1FC0
1FC0
ENDCHAR
STARTCHAR 0044
ENCODING 68
SWIDTH 780 0
DWIDTH 13 0
BBX 11 12 0 0
BITMAP
FF00
FF00
E1C0
E0E0
E0E0
E0E0
E0E0
E0E0
E1C0
E1C0
FF00
FF00
ENDCHAR
STARTCHAR 0045
ENCODING 69
SWIDTH 720 0
DWIDTH 12 0
BBX 10 12 0 0
BITMAP
FFC0
FFC0
E000
E000
E000
FFC0
FFC0
E000
E000
E000
FFC0
FFC0
ENDCHAR
STARTCHAR 0046
ENCODING 70
SWIDTH 720 0
DWIDTH 12 0
BBX 10 12 0 0
BITMAP
FFC0
FFC0
E000
E000
E000
FFC0
FFC0
E000
E000
E000
E000
E000
ENDCHAR
STARTCHAR 0047
ENCODING 71
SWIDTH 780 0
DWIDTH 13 0
BBX 11 12 0 0
BITMAP
1FE0
1FE0
3800
E000
E000
E3E0
E3E0
E0E0
38E0
38E0
1FE0
1FE0
ENDCHAR
STARTCHAR 0048
ENCODING 72
SWIDTH 780 0
DWIDTH 13 0
BBX 11 12 0 0
BITMAP
E0E0
E0E0
E0E0
E0E0
E0E0
FFE0
FFE0
E0E0
E0E0
E0E0
E0E0
E0E0
ENDCHAR
STARTCHAR 0049
ENCODING 73
SWIDTH 720 0
DWIDTH 12 0
BBX 10 12 0 0
BITMAP
FFC0
FFC0
1C00
1C00
1C00
1C00
1C00
1C00
1C00
1C00
FFC0
FFC0
ENDCHAR
STARTCHAR 004A
ENCODING 74
SWIDTH 780 0
DWIDTH 13 0
BBX 11 12 0 0
BITMAP
00E0
00E0
00E0
00E0
00E0
00E0
00E0
00E0
E0E0
E0E0
3FC0
3FC0
ENDCHAR
STARTCHAR 004B
ENCODING 75
SWIDTH 780 0
DWIDTH 13 0
BBX 11 12 0 0
BITMAP
E0E0
E0E0
E1C0
E700
E700
FE00
FF00
FF00
E7C0
E7C0
E1E0
E1E0
ENDCHAR
STARTCHAR 004C
ENCODING 76
SWIDTH 720 0
DWIDTH 12 0
BBX 10 12 0 0
BITMAP
E000
E000
E000
E000
E000
E000
E000
E000
E000
E000
FFC0
FFC0
ENDCHAR
STARTCHAR 004D
ENCODING 77
SWIDTH 780 0
DWIDTH 13 0
BBX 11 12 0 0
BITMAP
E0E0
E0E0
F9E0
F9E0
FFE0
E6E0
E6E0
E0E0
E0E0
E0E0
E0E0
E0E0
ENDCHAR
STARTCHAR 004E
ENCODING 78
SWIDTH 780 0
DWIDTH 13 0
BBX 11 12 0 0
BITMAP
E0E0
E0E0
F8E0
FCE0
FCE0
FFE0
FFE0
E7E0
E3E0
E3E0
E0E0
E0E0
ENDCHAR
STARTCHAR 004F
ENCODING 79
SWIDTH 780 0
DWIDTH 13 0
BBX 11 12 0 0
BITMAP
3FC0
3FC0
E0E0
E0E0
E0E0
E0E0
E0E0
E0E0
E0E0
E0E0
3FC0
3FC0
ENDCHAR
STARTCHAR 0050
ENCODING 80
SWIDTH 780 0
DWIDTH 13 0
BBX 11 12 0 0
BITMAP
FFC0
FFC0
E0E0
E0E0
E0E0
E0E0
E0E0
FFC0
FFC0
E000
E000
E000
ENDCHAR
STARTCHAR 0051
ENCODING 81
SWIDTH 780 0
DWIDTH 13 0
BBX 11 12 0 0
BITMAP
7FC0
7FC0
E0E0
E0E0
E0E0
E0E0
E0E0
E7E0
E7E0
E1C0
7F20
7F20
ENDCHAR
STARTCHAR 0052
ENCODING 82
SWIDTH 780 0
DWIDTH 13 0
BBX 11 12 0 0
BITMAP
FFC0
FFC0
E0E0
E0E0
E0E0
E3E0
E3E0
FF00
FF00
E7C0
E3E0
E3E0
ENDCHAR
STARTCHAR 0053
ENCODING 83
SWIDTH 780 0
DWIDTH 13 0
BBX 11 12 0 0
BITMAP
7F00
7F00
E1C0
E1C0
E000
7FC0
7FC0
00E0
E0E0
E0E0
7FC0
7FC0
ENDCHAR
STARTCHAR 0054
ENCODING 84
SWIDTH 720 0
DWIDTH 12 0
BBX 10 12 0 0
BITMAP
FFC0
FFC0
1C00
1C00
1C00
1C00
1C00
1C00
1C00
1C00
1C00
1C00
ENDCHAR
STARTCHAR 0055
ENCODING 85
SWIDTH 780 0
DWIDTH 13 0
BBX 11 12 0 0
BITMAP
E0E0
E0E0
E0E0
E0E0
E0E0
E0E0
E0E0
E0E0
E0E0
E0E0
3FC0
3FC0
ENDCHAR
STARTCHAR 0056
ENCODING 86
SWIDTH 780 0
DWIDTH 13 0
BBX 11 12 0 0
BITMAP
E0E0
E0E0
E0E0
E0E0
E0E0
F9E0
F9E0
3FC0
3FC0
1F00
0600
0600
ENDCHAR
STARTCHAR 0057
ENCODING 87
SWIDTH 780 0
DWIDTH 13 0
BBX 11 12 0 0
BITMAP
E0E0
E0E0
E0E0
E0E0
E0E0
E6E0
E6E0
FFE0
F9E0
F9E0
E0E0
E0E0
ENDCHAR
STARTCHAR 0058
ENCODING 88
SWIDTH 780 0
DWIDTH 13 0
BBX 11 12 0 0
BITMAP
E0E0
E0E0
FBE0
3FC0
3FC0
1F00
3FC0
3FC0
3BC0
FBE0
FBE0
E0E0
ENDCHAR
STARTCHAR 0059
ENCODING 89
SWIDTH 720 0
DWIDTH 12 0
BBX 10 12 0 0
BITMAP
E1C0
E1C0
E1C0
E1C0
E1C0
7F00
7F00
1C00
1C00
1C00
1C00
1C00
ENDCHAR
STARTCHAR 005A
ENCODING 90
SWIDTH 780 0
DWIDTH 13 0
BBX 11 12 0 0
BITMAP
FFE0
FFE0
01E0
07C0
07C0
1F00
3E00
3E00
F800
F800
FFE0
FFE0
ENDCHAR
STARTCHAR 005B
ENCODING 91
SWIDTH 720 0
DWIDTH 12 0
BBX 10 12 0 0
BITMAP
FFC0
FFC0
E000
E000
E000
E000
E000
E000
E000
E000
FFC0
FFC0
ENDCHAR
STARTCHAR 005C
ENCODING 92
SWIDTH 780 0
DWIDTH 13 0
BBX 11 12 0 0
BITMAP
E000
E000
F800
3E00
3E00
1F00
1F00
07C0
01C0
01E0
00E0
00E0
ENDCHAR
STARTCHAR 005D
ENCODING 93
SWIDTH 720 0
DWIDTH 12 0
BBX 10 12 0 0
BITMAP
FFC0
FFC0
01C0
01C0
01C0
01C0
01C0
01C0
01C0
01C0
FFC0
FFC0
ENDCHAR
STARTCHAR 005E
ENCODING 94
SWIDTH 480 0
DWIDTH 8 0
BBX 7 4 0 14
BITMAP
38
38
C6
C6
ENDCHAR
STARTCHAR 005F
ENCODING 95
SWIDTH 780 0
DWIDTH 13 0
BBX 13 2 0 -2
BITMAP
FFF8
FFF8
ENDCHAR
STARTCHAR 0060
ENCODING 96
SWIDTH 540 0
DWIDTH 9 0
BBX 7 4 0 14
BITMAP
E0
E0
3E
3E
ENDCHAR
STARTCHAR 0061
ENCODING 97
SWIDTH 780 0
DWIDTH 13 0
BBX 11 12 0 0
BITMAP
1F00
1F00
39C0
E0E0
E0E0
E0E0
E0E0
FFE0
FFE0
E0E0
E0E0
E0E0
ENDCHAR
STARTCHAR 0062
ENCODING 98
SWIDTH 780 0
DWIDTH 13 0
BBX 11 12 0 0
BITMAP
FFC0
FFC0
E0E0
E0E0
E0E0
FFC0
FFC0
E0E0
E0E0
E0E0
FFC0
FFC0
ENDCHAR
STARTCHAR 0063
ENCODING 99
SWIDTH 780 0
DWIDTH 13 0
BBX 11 12 0 0
BITMAP
1FC0
1FC0
38E0
E000
E000
E000
E000
E000
38E0
38E0
1FC0
1FC0
ENDCHAR
STARTCHAR 0064
ENCODING 100
SWIDTH 780 0
DWIDTH 13 0
BBX 11 12 0 0
BITMAP
FF00
FF00
E1C0
E0E0
E0E0
E0E0
E0E0
E0E0
E1C0
E1C0
FF00
FF00
ENDCHAR
STARTCHAR 0065
ENCODING 101
SWIDTH 720 0
DWIDTH 12 0
BBX 10 12 0 0
BITMAP
FFC0
FFC0
E000
E000
E000
FFC0
FFC0
E000
E000
E000
FFC0
FFC0
ENDCHAR
STARTCHAR 0066
ENCODING 102
SWIDTH 720 0
DWIDTH 12 0
BBX 10 12 0 0
BITMAP
FFC0
FFC0
E000
E000
E000
FFC0
FFC0
E000
E000
E000
E000
E000
ENDCHAR
STARTCHAR 0067
ENCODING 103
SWIDTH 780 0
DWIDTH 13 0
BBX 11 12 0 0
BITMAP
1FE0
1FE0
3800
E000
E000
E3E0
E3E0
E0E0
38E0
38E0
1FE0
1FE0
ENDCHAR
STARTCHAR 0068
ENCODING 104
SWIDTH 780 0
DWIDTH 13 0
BBX 11 12 0 0
BITMAP
E0E0
E0E0
E0E0
E0E0
E0E0
FFE0
FFE0
E0E0
E0E0
E0E0
E0E0
E0E0
ENDCHAR
STARTCHAR 0069
ENCODING 105
SWIDTH 720 0
DWIDTH 12 0
BBX 10 12 0 0
BITMAP
FFC0
FFC0
1C00
1C00
1C00
1C00
1C00
1C00
1C00
1C00
FFC0
FFC0
ENDCHAR
STARTCHAR 006A
ENCODING 106
SWIDTH 780 0
DWIDTH 13 0
BBX 11 12 0 0
BITMAP
00E0
00E0
00E0
00E0
00E0
00E0
00E0
00E0
E0E0
E0E0
3FC0
3FC0
ENDCHAR
STARTCHAR 006B
ENCODING 107
SWIDTH 780 0
DWIDTH 13 0
BBX 11 12 0 0
BITMAP
E0E0
E0E0
E1C0
E700
E700
FE00
FF00
FF00
E7C0
E7C0
E1E0
E1E0
ENDCHAR
STARTCHAR 006C
ENCODING 108
SWIDTH 720 0
DWIDTH 12 0
BBX 10 12 0 0
BITMAP
E000
E000
E000
E000
E000
E000
E000
E000
E000
E000
FFC0
FFC0
ENDCHAR
STARTCHAR 006D
ENCODING 109
SWIDTH 780 0
DWIDTH 13 0
BBX 11 12 0 0
BITMAP
E0E0
E0E0
F9E0
F9E0
FFE0
E6E0
E6E0
E0E0
E0E0
E0E0
E0E0
E0E0
ENDCHAR
STARTCHAR 006E
ENCODING 110
SWIDTH 780 0
DWIDTH 13 0
BBX 11 12 0 0
BITMAP
E0E0
E0E0
F8E0
FCE0
FCE0
FFE0
FFE0
E7E0
E3E0
E3E0
E0E0
E0E0
ENDCHAR
STARTCHAR 006F
ENCODING 111
SWIDTH 780 0
DWIDTH 13 0
BBX 11 12 0 0
BITMAP
3FC0
3FC0
E0E0
E0E0
E0E0
E0E0
E0E0
E0E0
E0E0
E0E0
3FC0
3FC0
ENDCHAR
STARTCHAR 0070
ENCODING 112
SWIDTH 780 0
DWIDTH 13 0
BBX 11 12 0 0
BITMAP
FFC0
FFC0
E0E0
E0E0
E0E0
E0E0
E0E0
FFC0
FFC0
E000
E000
E000
ENDCHAR
STARTCHAR 0071
ENCODING 113
SWIDTH 780 0
DWIDTH 13 0
BBX 11 12 0 0
BITMAP
7FC0
7FC0
E0E0
E0E0
E0E0
E0E0
E0E0
E7E0
E7E0
E1C0
7F20
7F20
ENDCHAR
STARTCHAR 0072
ENCODING 114
SWIDTH 780 0
DWIDTH 13 0
BBX 11 12 0 0
BITMAP
FFC0
FFC0
E0E0
E0E0
E0E0
E3E0
E3E0
FF00
FF00
E7C0
E3E0
E3E0
ENDCHAR
STARTCHAR 0073
ENCODING 115
SWIDTH 780 0
DWIDTH 13 0
BBX 11 12 0 0
BITMAP
7F00
7F00
E1C0
E1C0
E000
7FC0
7FC0
00E0
E0E0
E0E0
7FC0
7FC0
ENDCHAR
STARTCHAR 0074
ENCODING 116
SWIDTH 720 0
DWIDTH 12 0
BBX 10 12 0 0
BITMAP
FFC0
FFC0
1C00
1C00
1C00
1C00
1C00
1C00
1C00
1C00
1C00
1C00
ENDCHAR
STARTCHAR 0075
ENCODING 117
SWIDTH 780 0
DWIDTH 13 0
BBX 11 12 0 0
BITMAP
E0E0
E0E0
E0E0
E0E0
E0E0
E0E0
E0E0
E0E0
E0E0
E0E0
3FC0
3FC0
ENDCHAR
STARTCHAR 0076
ENCODING 118
SWIDTH 780 0
DWIDTH 13 0
BBX 11 12 0 0
BITMAP
E0E0
E0E0
E0E0
E0E0
E0E0
F9E0
F9E0
3FC0
3FC0
1F00
0600
0600
ENDCHAR
STARTCHAR 0077
ENCODING 119
SWIDTH 780 0
DWIDTH 13 0
BBX 11 12 0 0
BITMAP
E0E0
E0E0
E0E0
E0E0
E0E0
E6E0
E6E0
FFE0
F9E0
F9E0
E0E0
E0E0
ENDCHAR
STARTCHAR 0078
ENCODING 120
SWIDTH 780 0
DWIDTH 13 0
BBX 11 12 0 0
BITMAP
E0E0
E0E0
FBE0
3FC0
3FC0
1F00
3FC0
3FC0
3BC0
FBE0
FBE0
E0E0
ENDCHAR
STARTCHAR 0079
ENCODING 121
SWIDTH 720 0
DWIDTH 12 0
BBX 10 12 0 0
BITMAP
E1C0
E1C0
E1C0
E1C0
E1C0
7F00
7F00
1C00
1C00
1C00
1C00
1C00
ENDCHAR
STARTCHAR 007A
ENCODING 122
SWIDTH 780 0
DWIDTH 13 0
BBX 11 12 0 0
BITMAP
FFE0
FFE0
01E0
07C0
07C0
1F00
3E00
3E00
F800
F800
FFE0
FFE0
ENDCHAR
STARTCHAR 007B
ENCODING 123
SWIDTH 720 0
DWIDTH 12 0
BBX 10 12 0 0
BITMAP
1FC0
1FC0
3800
3800
3800
E000
E000
3800
3800
3800
1FC0
1FC0
ENDCHAR
STARTCHAR 007C
ENCODING 124
SWIDTH 180 0
DWIDTH 3 0
BBX 2 12 0 0
BITMAP
C0
C0
C0
C0
C0
C0
C0
C0
C0
C0
C0
C0
ENDCHAR
STARTCHAR 007D
ENCODING 125
SWIDTH 720 0
DWIDTH 12 0
BBX 10 12 0 0
BITMAP
FE00
FE00
0700
0700
0700
01C0
01C0
0700
0700
0700
FE00
FE00
ENDCHAR
STARTCHAR 007E
ENCODING 126
SWIDTH 660 0
DWIDTH 11 0
BBX 10 4 0 14
BITMAP
38C0
38C0
C700
C700
ENDCHAR
STARTCHAR 00A0
ENCODING 160
SWIDTH 780 0
DWIDTH 13 0
BBX 0 0 0 0
BITMAP
ENDCHAR
STARTCHAR 00A1
ENCODING 161
SWIDTH 660 0
DWIDTH 11 0
BBX 10 12 0 0
BITMAP
00C0
00C0
0000
0000
0600
1E00
1E00
3800
3800
F800
E000
E000
ENDCHAR
STARTCHAR 00A2
ENCODING 162
SWIDTH 780 0
DWIDTH 13 0
BBX 11 12 0 0
BITMAP
0300
0300
1FE0
3B00
3B00
E300
E300
3B00
1FE0
1FE0
0300
0300
ENDCHAR
STARTCHAR 00A3
ENCODING 163
SWIDTH 780 0
DWIDTH 13 0
BBX 11 12 0 0
BITMAP
07C0
07C0
1CE0
3800
3800
FF00
FF00
3800
3800
3800
FFE0
FFE0
ENDCHAR
STARTCHAR 00A4
ENCODING 164
SWIDTH 780 0
DWIDTH 13 0
BBX 11 12 0 0
BITMAP
E0E0
FFE0
FFE0
60C0
60C0
60C0
60C0
60C0
60C0
FFE0
FFE0
E0E0
ENDCHAR
STARTCHAR 00A5
ENCODING 165
SWIDTH 720 0
DWIDTH 12 0
BBX 10 12 0 0
BITMAP
E1C0
E1C0
E1C0
E1C0
E1C0
7F00
7F00
1C00
7F00
7F00
1C00
1C00
ENDCHAR
STARTCHAR 00A6
ENCODING 166
SWIDTH 180 0
DWIDTH 3 0
BBX 2 12 0 0
BITMAP
C0
C0
C0
C0
C0
00
00
C0
C0
C0
C0
C0
ENDCHAR
STARTCHAR 00A7
ENCODING 167
SWIDTH 780 0
DWIDTH 13 0
BBX 11 16 0 -2
BITMAP
7F00
7F00
E1C0
E1C0
E000
FF00
FF00
61C0
61C0
7FE0
7FE0
00E0
E0E0
E0E0
7FC0
7FC0
ENDCHAR
STARTCHAR 00A8
ENCODING 168
SWIDTH 480 0
DWIDTH 8 0
BBX 7 2 0 14
BITMAP
C6
C6
ENDCHAR
STARTCHAR 00A9
ENCODING 169
SWIDTH 780 0
DWIDTH 13 0
BBX 12 12 0 0
BITMAP
3FC0
3FC0
C030
DF30
DF30
D830
D830
DF30
DF30
C030
3FC0
3FC0
ENDCHAR
STARTCHAR 00AA
ENCODING 170
SWIDTH 840 0
DWIDTH 14 0
BBX 13 12 0 0
BITMAP
FFF0
8008
8008
8008
8008
8008
8008
8008
8008
8008
8008
FFF0
ENDCHAR
STARTCHAR 00AB
ENCODING 171
SWIDTH 720 0
DWIDTH 12 0
BBX 10 9 0 2
BITMAP
18C0
18C0
2100
2100
C600
2100
2100
18C0
18C0
ENDCHAR
STARTCHAR 00AC
ENCODING 172
SWIDTH 540 0
DWIDTH 9 0
BBX 7 4 1 3
BITMAP
FE
02
02
02
ENDCHAR
STARTCHAR 00AD
ENCODING 173
SWIDTH 600 0
DWIDTH 10 0
BBX 8 2 0 5
BITMAP
FF
FF
ENDCHAR
STARTCHAR 00AE
ENCODING 174
SWIDTH 780 0
DWIDTH 13 0
BBX 12 12 0 0
BITMAP
3FC0
3FC0
C030
DF30
DF30
D830
D830
D830
D830
C030
3FC0
3FC0
ENDCHAR
STARTCHAR 00AF
ENCODING 175
SWIDTH 780 0
DWIDTH 13 0
BBX 13 2 0 14
BITMAP
FFF8
FFF8
ENDCHAR
STARTCHAR 00B0
ENCODING 176
SWIDTH 420 0
DWIDTH 7 0
BBX 5 5 1 7
BITMAP
70
88
88
88
70
ENDCHAR
STARTCHAR 00B1
ENCODING 177
SWIDTH 840 0
DWIDTH 14 0
BBX 13 13 0 0
BITMAP
FFF8
8008
8008
8008
8008
8008
8008
8008
8008
8008
8008
8008
FFF8
ENDCHAR
STARTCHAR 00B2
ENCODING 178
SWIDTH 840 0
DWIDTH 14 0
BBX 13 12 0 0
BITMAP
FFF0
8008
8008
8008
8008
8008
8008
8008
8008
8008
8008
FFF0
ENDCHAR
STARTCHAR 00B3
ENCODING 179
SWIDTH 840 0
DWIDTH 14 0
BBX 13 12 0 0
BITMAP
FFF0
8008
8008
8008
8008
8008
8008
8008
8008
8008
8008
FFF0
ENDCHAR
STARTCHAR 00B4
ENCODING 180
SWIDTH 480 0
DWIDTH 8 0
BBX 6 4 0 14
BITMAP
1C
1C
F8
F8
ENDCHAR
STARTCHAR 00B5
ENCODING 181
SWIDTH 780 0
DWIDTH 13 0
BBX 11 14 0 -2
BITMAP
E0E0
E0E0
E0E0
E0E0
E0E0
E0E0
E0E0
E0E0
E0E0
E0E0
FFC0
FFC0
E000
E000
ENDCHAR
STARTCHAR 00B6
ENCODING 182
SWIDTH 540 0
DWIDTH 9 0
BBX 7 12 1 0
BITMAP
7E
F4
F4
F4
F4
74
14
14
14
14
14
14
ENDCHAR
STARTCHAR 00B7
ENCODING 183
SWIDTH 180 0
DWIDTH 3 0
BBX 2 2 0 5
BITMAP
C0
C0
ENDCHAR
STARTCHAR 00B8
ENCODING 184
SWIDTH 420 0
DWIDTH 7 0
BBX 5 4 0 -3
BITMAP
18
18
E0
E0
ENDCHAR
STARTCHAR 00B9
ENCODING 185
SWIDTH 840 0
DWIDTH 14 0
BBX 13 12 0 0
BITMAP
FFF0
8008
8008
8008
8008
8008
8008
8008
8008
8008
8008
FFF0
ENDCHAR
STARTCHAR 00BA
ENCODING 186
SWIDTH 840 0
DWIDTH 14 0
BBX 13 12 0 0
BITMAP
FFF0
8008
8008
8008
8008
8008
8008
8008
8008
8008
8008
FFF0
ENDCHAR
STARTCHAR 00BB
ENCODING 187
SWIDTH 720 0
DWIDTH 12 0
BBX 10 9 0 2
BITMAP
C600
C600
2100
2100
18C0
2100
2100
C600
C600
ENDCHAR
STARTCHAR 00BC
ENCODING 188
SWIDTH 840 0
DWIDTH 14 0
BBX 13 13 0 0
BITMAP
FFF8
8008
8008
8008
8008
8008
8008
8008
8008
8008
8008
8008
FFF8
ENDCHAR
STARTCHAR 00BD
ENCODING 189
SWIDTH 840 0
DWIDTH 14 0
BBX 13 13 0 0
BITMAP
FFF8
8008
8008
8008
8008
8008
8008
8008
8008
8008
8008
8008
FFF8
ENDCHAR
STARTCHAR 00BE
ENCODING 190
SWIDTH 840 0
DWIDTH 14 0
BBX 13 13 0 0
BITMAP
FFF8
8008
8008
8008
8008
8008
8008
8008
8008
8008
8008
8008
FFF8
ENDCHAR
STARTCHAR 00BF
ENCODING 191
SWIDTH 780 0
DWIDTH 13 0
BBX 11 12 0 0
BITMAP
0300
0300
0000
0700
0700
3E00
3E00
E000
E0E0
E0E0
3FC0
3FC0
ENDCHAR
STARTCHAR 00C0
ENCODING 192
SWIDTH 780 0
DWIDTH 13 0
BBX 11 17 0 0
BITMAP
3800
1F00
1F00
0000
0000
1F00
1F00
39C0
E0E0
E0E0
E0E0
E0E0
FFE0
FFE0
E0E0
E0E0
E0E0
ENDCHAR
STARTCHAR 00C1
ENCODING 193
SWIDTH 780 0
DWIDTH 13 0
BBX 11 17 0 0
BITMAP
01C0
1F00
1F00
0000
0000
1F00
1F00
39C0
E0E0
E0E0
E0E0
E0E0
FFE0
FFE0
E0E0
E0E0
E0E0
ENDCHAR
STARTCHAR 00C2
ENCODING 194
SWIDTH 780 0
DWIDTH 13 0
BBX 11 17 0 0
BITMAP
1F00
60C0
60C0
0000
0000
1F00
1F00
71C0
E0E0
E0E0
E0E0
E0E0
FFE0
FFE0
E0E0
E0E0
E0E0
ENDCHAR
STARTCHAR 00C3
ENCODING 195
SWIDTH 780 0
DWIDTH 13 0
BBX 11 17 0 0
BITMAP
1C20
63C0
61C0
0000
0000
1F00
1F00
71C0
E0E0
E0E0
E0E0
E0E0
FFE0
FFE0
E0E0
E0E0
E0E0
ENDCHAR
STARTCHAR 00C4
ENCODING 196
SWIDTH 780 0
DWIDTH 13 0
BBX 11 16 0 0
BITMAP
60C0
60C0
0000
0000
1F00
1F00
71C0
E0E0
E0E0
E0E0
E0E0
FFE0
FFE0
E0E0
E0E0
E0E0
ENDCHAR
STARTCHAR 00C5
ENCODING 197
SWIDTH 780 0
DWIDTH 13 0
BBX 12 16 0 0
BITMAP
0600
0600
0000
0000
1F00
1F00
39C0
E0F0
E0F0
E0F0
E0F0
FFF0
FFF0
E0F0
E0F0
E0F0
ENDCHAR
STARTCHAR 00C6
ENCODING 198
SWIDTH 780 0
DWIDTH 13 0
BBX 11 12 0 0
BITMAP
1FE0
1FE0
39C0
E1C0
E1C0
E1E0
E1E0
FFC0
FFC0
E1C0
E1E0
E1E0
ENDCHAR
STARTCHAR 00C7
ENCODING 199
SWIDTH 780 0
DWIDTH 13 0
BBX 11 16 0 -4
BITMAP
1FC0
1FC0
38E0
E000
E000
E000
E000
E000
38E0
38E0
1FC0
1FC0
0300
0300
1C00
1C00
ENDCHAR
STARTCHAR 00C8
ENCODING 200
SWIDTH 720 0
DWIDTH 12 0
BBX 10 17 0 0
BITMAP
3800
1F00
1F00
0000
0000
FFC0
FFC0
E000
E000
E000
FFC0
FFC0
E000
E000
E000
FFC0
FFC0
ENDCHAR
STARTCHAR 00C9
ENCODING 201
SWIDTH 720 0
DWIDTH 12 0
BBX 10 17 0 0
BITMAP
0700
3E00
3E00
0000
0000
FFC0
FFC0
E000
E000
E000
FFC0
FFC0
E000
E000
E000
FFC0
FFC0
ENDCHAR
STARTCHAR 00CA
ENCODING 202
SWIDTH 720 0
DWIDTH 12 0
BBX 10 17 0 0
BITMAP
1C00
6300
6300
0000
0000
FFC0
FFC0
E000
E000
E000
FFC0
FFC0
E000
E000
E000
FFC0
FFC0
ENDCHAR
STARTCHAR 00CB
ENCODING 203
SWIDTH 720 0
DWIDTH 12 0
BBX 10 16 0 0
BITMAP
6300
6300
0000
0000
FFC0
FFC0
E000
E000
E000
FFC0
FFC0
E000
E000
E000
FFC0
FFC0
ENDCHAR
STARTCHAR 00CC
ENCODING 204
SWIDTH 720 0
DWIDTH 12 0
BBX 10 17 0 0
BITMAP
3800
1F00
1F00
0000
0000
FFC0
FFC0
1C00
1C00
1C00
1C00
1C00
1C00
1C00
1C00
FFC0
FFC0
ENDCHAR
STARTCHAR 00CD
ENCODING 205
SWIDTH 720 0
DWIDTH 12 0
BBX 10 17 0 0
BITMAP
0700
3E00
3E00
0000
0000
FFC0
FFC0
0E00
0E00
0E00
0E00
0E00
0E00
0E00
0E00
FFC0
FFC0
ENDCHAR
STARTCHAR 00CE
ENCODING 206
SWIDTH 720 0
DWIDTH 12 0
BBX 10 17 0 0
BITMAP
1C00
6300
6300
0000
0000
FFC0
FFC0
1C00
1C00
1C00
1C00
1C00
1C00
1C00
1C00
FFC0
FFC0
ENDCHAR
STARTCHAR 00CF
ENCODING 207
SWIDTH 720 0
DWIDTH 12 0
BBX 10 16 0 0
BITMAP
6300
6300
0000
0000
FFC0
FFC0
1C00
1C00
1C00
1C00
1C00
1C00
1C00
1C00
FFC0
FFC0
ENDCHAR
STARTCHAR 00D0
ENCODING 208
SWIDTH 780 0
DWIDTH 13 0
BBX 11 12 0 0
BITMAP
3F00
3F00
39C0
38E0
38E0
FEE0
FEE0
38E0
39C0
39C0
3F00
3F00
ENDCHAR
STARTCHAR 00D1
ENCODING 209
SWIDTH 780 0
DWIDTH 13 0
BBX 11 17 0 0
BITMAP
1C20
63C0
61C0
0000
0000
E0E0
E0E0
F8E0
FCE0
FCE0
FFE0
FFE0
E7E0
E1E0
E1E0
E0E0
E0E0
ENDCHAR
STARTCHAR 00D2
ENCODING 210
SWIDTH 780 0
DWIDTH 13 0
BBX 11 17 0 0
BITMAP
3800
1F00
1F00
0000
0000
3FC0
3FC0
E0E0
E0E0
E0E0
E0E0
E0E0
E0E0
E0E0
E0E0
3FC0
3FC0
ENDCHAR
STARTCHAR 00D3
ENCODING 211
SWIDTH 780 0
DWIDTH 13 0
BBX 11 17 0 0
BITMAP
01C0
1F00
1F00
0000
0000
3FC0
3FC0
E0E0
E0E0
E0E0
E0E0
E0E0
E0E0
E0E0
E0E0
3FC0
3FC0
ENDCHAR
STARTCHAR 00D4
ENCODING 212
SWIDTH 780 0
DWIDTH 13 0
BBX 11 17 0 0
BITMAP
1F00
60C0
60C0
0000
0000
7FC0
7FC0
E0E0
E0E0
E0E0
E0E0
E0E0
E0E0
E0E0
E0E0
7FC0
7FC0
ENDCHAR
STARTCHAR 00D5
ENCODING 213
SWIDTH 780 0
DWIDTH 13 0
BBX 11 17 0 0
BITMAP
1C20
63C0
61C0
0000
0000
7FC0
7FC0
E0E0
E0E0
E0E0
E0E0
E0E0
E0E0
E0E0
E0E0
7FC0
7FC0
ENDCHAR
STARTCHAR 00D6
ENCODING 214
SWIDTH 780 0
DWIDTH 13 0
BBX 11 16 0 0
BITMAP
60C0
60C0
0000
0000
7FC0
7FC0
E0E0
E0E0
E0E0
E0E0
E0E0
E0E0
E0E0
E0E0
7FC0
7FC0
ENDCHAR
STARTCHAR 00D7
ENCODING 215
SWIDTH 840 0
DWIDTH 14 0
BBX 8 8 2 2
BITMAP
E7
FF
FF
7E
7E
FF
E7
E7
ENDCHAR
STARTCHAR 00D8
ENCODING 216
SWIDTH 780 0
DWIDTH 13 0
BBX 11 12 0 0
BITMAP
3FC0
3FC0
E0E0
E1E0
E1E0
E6E0
E6E0
F8E0
F8E0
E0E0
3FC0
3FC0
ENDCHAR
STARTCHAR 00D9
ENCODING 217
SWIDTH 780 0
DWIDTH 13 0
BBX 11 17 0 0
BITMAP
3800
1F00
1F00
0000
0000
E0E0
E0E0
E0E0
E0E0
E0E0
E0E0
E0E0
E0E0
E0E0
E0E0
3FC0
3FC0
ENDCHAR
STARTCHAR 00DA
ENCODING 218
SWIDTH 780 0
DWIDTH 13 0
BBX 11 17 0 0
BITMAP
01C0
1F00
1F00
0000
0000
E0E0
E0E0
E0E0
E0E0
E0E0
E0E0
E0E0
E0E0
E0E0
E0E0
3FC0
3FC0
ENDCHAR
STARTCHAR 00DB
ENCODING 219
SWIDTH 780 0
DWIDTH 13 0
BBX 11 17 0 0
BITMAP
1F00
60C0
60C0
0000
0000
E0E0
E0E0
E0E0
E0E0
E0E0
E0E0
E0E0
E0E0
E0E0
E0E0
7FC0
7FC0
ENDCHAR
STARTCHAR 00DC
ENCODING 220
SWIDTH 780 0
DWIDTH 13 0
BBX 11 16 0 0
BITMAP
60C0
60C0
0000
0000
E0E0
E0E0
E0E0
E0E0
E0E0
E0E0
E0E0
E0E0
E0E0
E0E0
7FC0
7FC0
ENDCHAR
STARTCHAR 00DD
ENCODING 221
SWIDTH 720 0
DWIDTH 12 0
BBX 10 17 0 0
BITMAP
0700
3E00
3E00
0000
0000
E1C0
E1C0
E1C0
E1C0
E1C0
3F00
3F00
0E00
0E00
0E00
0E00
0E00
ENDCHAR
STARTCHAR 00DE
ENCODING 222
SWIDTH 780 0
DWIDTH 13 0
BBX 11 12 0 0
BITMAP
E000
E000
FFC0
E0E0
E0E0
E0E0
E0E0
E0E0
FFC0
FFC0
E000
E000
ENDCHAR
STARTCHAR 00DF
ENCODING 223
SWIDTH 780 0
DWIDTH 13 0
BBX 11 12 0 0
BITMAP
3FC0
3FC0
E0E0
E0E0
E0E0
E7C0
E7C0
E0E0
E0E0
E0E0
E7C0
E7C0
ENDCHAR
STARTCHAR 00E0
ENCODING 224
SWIDTH 780 0
DWIDTH 13 0
BBX 11 17 0 0
BITMAP
3800
1F00
1F00
0000
0000
1F00
1F00
39C0
E0E0
E0E0
E0E0
E0E0
FFE0
FFE0
E0E0
E0E0
E0E0
ENDCHAR
STARTCHAR 00E1
ENCODING 225
SWIDTH 780 0
DWIDTH 13 0
BBX 11 17 0 0
BITMAP
01C0
1F00
1F00
0000
0000
1F00
1F00
39C0
E0E0
E0E0
E0E0
E0E0
FFE0
FFE0
E0E0
E0E0
E0E0
ENDCHAR
STARTCHAR 00E2
ENCODING 226
SWIDTH 780 0
DWIDTH 13 0
BBX 11 17 0 0
BITMAP
1F00
60C0
60C0
0000
0000
1F00
1F00
71C0
E0E0
E0E0
E0E0
E0E0
FFE0
FFE0
E0E0
E0E0
E0E0
ENDCHAR
STARTCHAR 00E3
ENCODING 227
SWIDTH 780 0
DWIDTH 13 0
BBX 11 17 0 0
BITMAP
1C20
63C0
61C0
0000
0000
1F00
1F00
71C0
E0E0
E0E0
E0E0
E0E0
FFE0
FFE0
E0E0
E0E0
E0E0
ENDCHAR
STARTCHAR 00E4
ENCODING 228
SWIDTH 780 0
DWIDTH 13 0
BBX 11 16 0 0
BITMAP
60C0
60C0
0000
0000
1F00
1F00
71C0
E0E0
E0E0
E0E0
E0E0
FFE0
FFE0
E0E0
E0E0
E0E0
ENDCHAR
STARTCHAR 00E5
ENCODING 229
SWIDTH 780 0
DWIDTH 13 0
BBX 12 16 0 0
BITMAP
0600
0600
0000
0000
1F00
1F00
39C0
E0F0
E0F0
E0F0
E0F0
FFF0
FFF0
E0F0
E0F0
E0F0
ENDCHAR
STARTCHAR 00E6
ENCODING 230
SWIDTH 780 0
DWIDTH 13 0
BBX 11 12 0 0
BITMAP
1FE0
1FE0
39C0
E1C0
E1C0
E1E0
E1E0
FFC0
FFC0
E1C0
E1E0
E1E0
ENDCHAR
STARTCHAR 00E7
ENCODING 231
SWIDTH 780 0
DWIDTH 13 0
BBX 11 16 0 -4
BITMAP
1FC0
1FC0
38E0
E000
E000
E000
E000
E000
38E0
38E0
1FC0
1FC0
0300
0300
1C00
1C00
ENDCHAR
STARTCHAR 00E8
ENCODING 232
SWIDTH 720 0
DWIDTH 12 0
BBX 10 17 0 0
BITMAP
3800
1F00
1F00
0000
0000
FFC0
FFC0
E000
E000
E000
FFC0
FFC0
E000
E000
E000
FFC0
FFC0
ENDCHAR
STARTCHAR 00E9
ENCODING 233
SWIDTH 720 0
DWIDTH 12 0
BBX 10 17 0 0
BITMAP
0700
3E00
3E00
0000
0000
FFC0
FFC0
E000
E000
E000
FFC0
FFC0
E000
E000
E000
FFC0
FFC0
ENDCHAR
STARTCHAR 00EA
ENCODING 234
SWIDTH 720 0
DWIDTH 12 0
BBX 10 17 0 0
BITMAP
1C00
6300
6300
0000
0000
FFC0
FFC0
E000
E000
E000
FFC0
FFC0
E000
E000
E000
FFC0
FFC0
ENDCHAR
STARTCHAR 00EB
ENCODING 235
SWIDTH 720 0
DWIDTH 12 0
BBX 10 16 0 0
BITMAP
6300
6300
0000
0000
FFC0
FFC0
E000
E000
E000
FFC0
FFC0
E000
E000
E000
FFC0
FFC0
ENDCHAR
STARTCHAR 00EC
ENCODING 236
SWIDTH 720 0
DWIDTH 12 0
BBX 10 17 0 0
BITMAP
3800
1F00
1F00
0000
0000
FFC0
FFC0
1C00
1C00
1C00
1C00
1C00
1C00
1C00
1C00
FFC0
FFC0
ENDCHAR
STARTCHAR 00ED
ENCODING 237
SWIDTH 720 0
DWIDTH 12 0
BBX 10 17 0 0
BITMAP
0700
3E00
3E00
0000
0000
FFC0
FFC0
0E00
0E00
0E00
0E00
0E00
0E00
0E00
0E00
FFC0
FFC0
ENDCHAR
STARTCHAR 00EE
ENCODING 238
SWIDTH 720 0
DWIDTH 12 0
BBX 10 17 0 0
BITMAP
1C00
6300
6300
0000
0000
FFC0
FFC0
1C00
1C00
1C00
1C00
1C00
1C00
1C00
1C00
FFC0
FFC0
ENDCHAR
STARTCHAR 00EF
ENCODING 239
SWIDTH 720 0
DWIDTH 12 0
BBX 10 16 0 0
BITMAP
6300
6300
0000
0000
FFC0
FFC0
1C00
1C00
1C00
1C00
1C00
1C00
1C00
1C00
FFC0
FFC0
ENDCHAR
STARTCHAR 00F0
ENCODING 240
SWIDTH 780 0
DWIDTH 13 0
BBX 11 12 0 0
BITMAP
3F00
3F00
39C0
38E0
38E0
FEE0
FEE0
38E0
39C0
39C0
3F00
3F00
ENDCHAR
STARTCHAR 00F1
ENCODING 241
SWIDTH 780 0
DWIDTH 13 0
BBX 11 17 0 0
BITMAP
1C20
63C0
61C0
0000
0000
E0E0
E0E0
F8E0
FCE0
FCE0
FFE0
FFE0
E7E0
E1E0
E1E0
E0E0
E0E0
ENDCHAR
STARTCHAR 00F2
ENCODING 242
SWIDTH 780 0
DWIDTH 13 0
BBX 11 17 0 0
BITMAP
3800
1F00
1F00
0000
0000
3FC0
3FC0
E0E0
E0E0
E0E0
E0E0
E0E0
E0E0
E0E0
E0E0
3FC0
3FC0
ENDCHAR
STARTCHAR 00F3
ENCODING 243
SWIDTH 780 0
DWIDTH 13 0
BBX 11 17 0 0
BITMAP
01C0
1F00
1F00
0000
0000
3FC0
3FC0
E0E0
E0E0
E0E0
E0E0
E0E0
E0E0
E0E0
E0E0
3FC0
3FC0
ENDCHAR
STARTCHAR 00F4
ENCODING 244
SWIDTH 780 0
DWIDTH 13 0
BBX 11 17 0 0
BITMAP
1F00
60C0
60C0
0000
0000
7FC0
7FC0
E0E0
E0E0
E0E0
E0E0
E0E0
E0E0
E0E0
E0E0
7FC0
7FC0
ENDCHAR
STARTCHAR 00F5
ENCODING 245
SWIDTH 780 0
DWIDTH 13 0
BBX 11 17 0 0
BITMAP
1C20
63C0
61C0
0000
0000
7FC0
7FC0
E0E0
E0E0
E0E0
E0E0
E0E0
E0E0
E0E0
E0E0
7FC0
7FC0
ENDCHAR
STARTCHAR 00F6
ENCODING 246
SWIDTH 780 0
DWIDTH 13 0
BBX 11 16 0 0
BITMAP
60C0
60C0
0000
0000
7FC0
7FC0
E0E0
E0E0
E0E0
E0E0
E0E0
E0E0
E0E0
E0E0
7FC0
7FC0
ENDCHAR
STARTCHAR 00F7
ENCODING 247
SWIDTH 600 0
DWIDTH 10 0
BBX 8 9 0 2
BITMAP
18
18
00
00
FF
FF
00
18
18
ENDCHAR
STARTCHAR 00F8
ENCODING 248
SWIDTH 780 0
DWIDTH 13 0
BBX 11 12 0 0
BITMAP
3FC0
3FC0
E0E0
E1E0
E1E0
E6E0
E6E0
F8E0
F8E0
E0E0
3FC0
3FC0
ENDCHAR
STARTCHAR 00F9
ENCODING 249
SWIDTH 780 0
DWIDTH 13 0
BBX 11 17 0 0
BITMAP
3800
1F00
1F00
0000
0000
E0E0
E0E0
E0E0
E0E0
E0E0
E0E0
E0E0
E0E0
E0E0
E0E0
3FC0
3FC0
ENDCHAR
STARTCHAR 00FA
ENCODING 250
SWIDTH 780 0
DWIDTH 13 0
BBX 11 17 0 0
BITMAP
01C0
1F00
1F00
0000
0000
E0E0
E0E0
E0E0
E0E0
E0E0
E0E0
E0E0
E0E0
E0E0
E0E0
3FC0
3FC0
ENDCHAR
STARTCHAR 00FB
ENCODING 251
SWIDTH 780 0
DWIDTH 13 0
BBX 11 17 0 0
BITMAP
1F00
60C0
60C0
0000
0000
E0E0
E0E0
E0E0
E0E0
E0E0
E0E0
E0E0
E0E0
E0E0
E0E0
7FC0
7FC0
ENDCHAR
STARTCHAR 00FC
ENCODING 252
SWIDTH 780 0
DWIDTH 13 0
BBX 11 16 0 0
BITMAP
60C0
60C0
0000
0000
E0E0
E0E0
E0E0
E0E0
E0E0
E0E0
E0E0
E0E0
E0E0
E0E0
7FC0
7FC0
ENDCHAR
STARTCHAR 00FD
ENCODING 253
SWIDTH 720 0
DWIDTH 12 0
BBX 10 17 0 0
BITMAP
0700
3E00
3E00
0000
0000
E1C0
E1C0
E1C0
E1C0
E1C0
3F00
3F00
0E00
0E00
0E00
0E00
0E00
ENDCHAR
STARTCHAR 00FE
ENCODING 254
SWIDTH 780 0
DWIDTH 13 0
BBX 11 12 0 0
BITMAP
E000
E000
FFC0
E0E0
E0E0
E0E0
E0E0
E0E0
FFC0
FFC0
E000
E000
ENDCHAR
STARTCHAR 00FF
ENCODING 255
SWIDTH 660 0
DWIDTH 11 0
BBX 10 16 0 0
BITMAP
6300
6300
0000
0000
E3C0
E3C0
E3C0
E3C0
E3C0
7F00
7F00
1C00
1C00
1C00
1C00
1C00
ENDCHAR
STARTCHAR 0131
ENCODING 305
SWIDTH 300 0
DWIDTH 5 0
BBX 3 8 1 0
BITMAP
40
C0
40
40
40
40
40
E0
ENDCHAR
STARTCHAR 02C6
ENCODING 710
SWIDTH 480 0
DWIDTH 8 0
BBX 7 4 0 14
BITMAP
38
38
C6
C6
ENDCHAR
STARTCHAR 02C7
ENCODING 711
SWIDTH 480 0
DWIDTH 8 0
BBX 7 4 0 14
BITMAP
C6
C6
38
38
ENDCHAR
STARTCHAR 02C9
ENCODING 713
SWIDTH 540 0
DWIDTH 9 0
BBX 7 2 0 14
BITMAP
FE
FE
ENDCHAR
STARTCHAR 02D8
ENCODING 728
SWIDTH 480 0
DWIDTH 8 0
BBX 7 4 0 14
BITMAP
C6
C6
FE
FE
ENDCHAR
STARTCHAR 02D9
ENCODING 729
SWIDTH 180 0
DWIDTH 3 0
BBX 2 2 0 14
BITMAP
C0
C0
ENDCHAR
STARTCHAR 02DA
ENCODING 730
SWIDTH 180 0
DWIDTH 3 0
BBX 2 2 0 14
BITMAP
C0
C0
ENDCHAR
STARTCHAR 02DB
ENCODING 731
SWIDTH 420 0
DWIDTH 7 0
BBX 5 4 0 -3
BITMAP
C0
C0
38
38
ENDCHAR
STARTCHAR 02DC
ENCODING 732
SWIDTH 720 0
DWIDTH 12 0
BBX 10 4 0 14
BITMAP
39C0
39C0
C600
C600
ENDCHAR
STARTCHAR 02DD
ENCODING 733
SWIDTH 600 0
DWIDTH 10 0
BBX 8 4 0 14
BITMAP
21
21
C6
C6
ENDCHAR
STARTCHAR 037E
ENCODING 894
SWIDTH 180 0
DWIDTH 3 0
BBX 2 9 0 -2
BITMAP
C0
C0
00
00
00
C0
C0
C0
C0
ENDCHAR
STARTCHAR 2013
ENCODING 8211
SWIDTH 600 0
DWIDTH 10 0
BBX 8 2 0 5
BITMAP
FF
FF
ENDCHAR
STARTCHAR 2014
ENCODING 8212
SWIDTH 600 0
DWIDTH 10 0
BBX 8 2 0 5
BITMAP
FF
FF
ENDCHAR
STARTCHAR 2018
ENCODING 8216
SWIDTH 180 0
DWIDTH 3 0
BBX 2 3 0 9
BITMAP
C0
C0
C0
ENDCHAR
STARTCHAR 2019
ENCODING 8217
SWIDTH 180 0
DWIDTH 3 0
BBX 2 3 0 9
BITMAP
C0
C0
C0
ENDCHAR
STARTCHAR 201A
ENCODING 8218
SWIDTH 180 0
DWIDTH 3 0
BBX 2 3 0 -2
BITMAP
C0
C0
C0
ENDCHAR
STARTCHAR 201C
ENCODING 8220
SWIDTH 420 0
DWIDTH 7 0
BBX 5 3 0 9
BITMAP
D8
D8
D8
ENDCHAR
STARTCHAR 201D
ENCODING 8221
SWIDTH 420 0
DWIDTH 7 0
BBX 5 3 0 9
BITMAP
D8
D8
D8
ENDCHAR
STARTCHAR 201E
ENCODING 8222
SWIDTH 420 0
DWIDTH 7 0
BBX 5 3 0 -2
BITMAP
D8
D8
D8
ENDCHAR
STARTCHAR 2020
ENCODING 8224
SWIDTH 480 0
DWIDTH 8 0
BBX 6 14 1 -2
BITMAP
30
30
94
FC
10
30
30
30
10
10
10
10
10
10
ENDCHAR
STARTCHAR 2021
ENCODING 8225
SWIDTH 480 0
DWIDTH 8 0
BBX 6 14 1 -2
BITMAP
30
30
94
FC
10
10
30
30
10
10
94
FC
10
30
ENDCHAR
STARTCHAR 2022
ENCODING 8226
SWIDTH 540 0
DWIDTH 9 0
BBX 5 5 2 4
BITMAP
70
F8
F8
F8
70
ENDCHAR
STARTCHAR 2026
ENCODING 8230
SWIDTH 600 0
DWIDTH 10 0
BBX 8 2 0 0
BITMAP
DB
DB
ENDCHAR
STARTCHAR 2039
ENCODING 8249
SWIDTH 720 0
DWIDTH 12 0
BBX 10 9 0 2
BITMAP
07C0
07C0
1C00
1C00
F800
F800
1C00
07C0
07C0
ENDCHAR
STARTCHAR 203A
ENCODING 8250
SWIDTH 780 0
DWIDTH 13 0
BBX 10 9 1 2
BITMAP
F800
F800
1C00
1C00
07C0
07C0
1C00
F800
F800
ENDCHAR
STARTCHAR 2044
ENCODING 8260
SWIDTH 780 0
DWIDTH 13 0
BBX 11 12 0 0
BITMAP
00E0
00E0
01E0
07C0
07C0
1F00
1F00
3E00
3800
F800
E000
E000
ENDCHAR
STARTCHAR 20A3
ENCODING 8355
SWIDTH 720 0
DWIDTH 12 0
BBX 10 12 0 0
BITMAP
3FC0
3FC0
3800
3800
3800
3FC0
3FC0
3800
FE00
FE00
3800
3800
ENDCHAR
STARTCHAR 20A4
ENCODING 8356
SWIDTH 780 0
DWIDTH 13 0
BBX 11 12 0 0
BITMAP
07C0
07C0
1CE0
3800
3800
FF00
FF00
3800
3800
3800
FFE0
FFE0
ENDCHAR
STARTCHAR 20A7
ENCODING 8359
SWIDTH 780 0
DWIDTH 13 0
BBX 11 12 0 0
BITMAP
3FC0
3FC0
38E0
38E0
38E0
3FC0
3FC0
3800
FE00
FE00
3800
3800
ENDCHAR
STARTCHAR 20AC
ENCODING 8364
SWIDTH 840 0
DWIDTH 14 0
BBX 12 12 0 0
BITMAP
07F0
07F0
1C00
FF00
FF00
3800
3800
FF00
FF00
1C00
07F0
07F0
ENDCHAR
STARTCHAR 2116
ENCODING 8470
SWIDTH 780 0
DWIDTH 13 0
BBX 12 6 0 6
BITMAP
FBF0
FBF0
DB30
DB30
DBF0
DBF0
ENDCHAR
STARTCHAR 2122
ENCODING 8482
SWIDTH 780 0
DWIDTH 13 0
BBX 13 5 0 7
BITMAP
FFE0
FFE0
26D8
26D8
2618
ENDCHAR
STARTCHAR 2202
ENCODING 8706
SWIDTH 780 0
DWIDTH 13 0
BBX 13 13 0 0
BITMAP
7FE0
8010
8008
8008
8008
8008
8008
8008
8008
8008
8008
8008
FFF0
ENDCHAR
STARTCHAR 2206
ENCODING 8710
SWIDTH 780 0
DWIDTH 13 0
BBX 13 13 0 0
BITMAP
7FE0
8010
8008
8008
8008
8008
8008
8008
8008
8008
8008
8008
FFF0
ENDCHAR
STARTCHAR 220F
ENCODING 8719
SWIDTH 780 0
DWIDTH 13 0
BBX 13 13 0 0
BITMAP
7FE0
8010
8008
8008
8008
8008
8008
8008
8008
8008
8008
8008
FFF0
ENDCHAR
STARTCHAR 2211
ENCODING 8721
SWIDTH 780 0
DWIDTH 13 0
BBX 13 13 0 0
BITMAP
7FE0
8010
8008
8008
8008
8008
8008
8008
8008
8008
8008
8008
FFF0
ENDCHAR
STARTCHAR 2212
ENCODING 8722
SWIDTH 600 0
DWIDTH 10 0
BBX 8 2 0 5
BITMAP
FF
FF
ENDCHAR
STARTCHAR 2215
ENCODING 8725
SWIDTH 780 0
DWIDTH 13 0
BBX 11 12 0 0
BITMAP
00E0
00E0
01E0
07C0
07C0
1F00
1F00
3E00
3800
F800
E000
E000
ENDCHAR
STARTCHAR 2219
ENCODING 8729
SWIDTH 180 0
DWIDTH 3 0
BBX 2 2 0 5
BITMAP
C0
C0
ENDCHAR
STARTCHAR 221A
ENCODING 8730
SWIDTH 780 0
DWIDTH 13 0
BBX 13 13 0 0
BITMAP
7FE0
8010
8008
8008
8008
8008
8008
8008
8008
8008
8008
8008
FFF0
ENDCHAR
STARTCHAR 221E
ENCODING 8734
SWIDTH 780 0
DWIDTH 13 0
BBX 13 13 0 0
BITMAP
7FE0
8010
8008
8008
8008
8008
8008
8008
8008
8008
8008
8008
FFF0
ENDCHAR
STARTCHAR 222B
ENCODING 8747
SWIDTH 780 0
DWIDTH 13 0
BBX 13 13 0 0
BITMAP
7FE0
8010
8008
8008
8008
8008
8008
8008
8008
8008
8008
8008
FFF0
ENDCHAR
STARTCHAR 2248
ENCODING 8776
SWIDTH 780 0
DWIDTH 13 0
BBX 13 13 0 0
BITMAP
7FE0
8010
8008
8008
8008
8008
8008
8008
8008
8008
8008
8008
FFF0
ENDCHAR
STARTCHAR 2264
ENCODING 8804
SWIDTH 780 0
DWIDTH 13 0
BBX 13 13 0 0
BITMAP
7FE0
8010
8008
8008
8008
8008
8008
8008
8008
8008
8008
8008
FFF0
ENDCHAR
STARTCHAR 2265
ENCODING 8805
SWIDTH 780 0
DWIDTH 13 0
BBX 13 13 0 0
BITMAP
7FE0
8010
8008
8008
8008
8008
8008
8008
8008
8008
8008
8008
FFF0
ENDCHAR
STARTCHAR F001
ENCODING 61441
SWIDTH 540 0
DWIDTH 9 0
BBX 0 0 0 0
BITMAP
ENDCHAR
STARTCHAR F002
ENCODING 61442
SWIDTH 540 0
DWIDTH 9 0
BBX 0 0 0 0
BITMAP
ENDCHAR
STARTCHAR FB01
ENCODING 64257
SWIDTH 540 0
DWIDTH 9 0
BBX 0 0 0 0
BITMAP
ENDCHAR
STARTCHAR FB02
ENCODING 64258
SWIDTH 540 0
DWIDTH 9 0
BBX 0 0 0 0
BITMAP
ENDCHAR
ENDFONT
